<?xml version="1.0" encoding="utf-8"?>
<!-- Generator: Adobe Illustrator 23.0.2, SVG Export Plug-In . SVG Version: 6.00 Build 0)  -->
<svg version="1.1" id="Calque_1" xmlns="http://www.w3.org/2000/svg" xmlns:xlink="http://www.w3.org/1999/xlink" x="0px" y="0px"
	 viewBox="0 0 419.2 127.8" style="enable-background:new 0 0 419.2 127.8;" xml:space="preserve">
<style type="text/css">
	.st0{fill:#FFFFFF;}
</style>
<title>Logo Luuug</title>
<path class="st0" d="M66.8,105.4v20.7H0V36.6h23.2v68.9H66.8z"/>
<path class="st0" d="M149.1,93.4c0,26.2-15.6,34.5-37.7,34.5c-21.7,0-37.8-8.3-37.8-34.5V36.6H97v48.9c0,11.8,1.6,22.2,14.4,22.2
	c13.3,0,14.3-10.4,14.3-22.2V36.6h23.4L149.1,93.4z"/>
<path class="st0" d="M237,93.4c0,26.2-15.6,34.5-37.7,34.5c-21.7,0-37.8-8.3-37.8-34.5V36.6h23.4v48.9c0,11.8,1.6,22.2,14.4,22.2
	c13.3,0,14.3-10.4,14.3-22.2V36.6H237V93.4z"/>
<path class="st0" d="M324.9,93.4c0,26.2-15.6,34.5-37.7,34.5c-21.7,0-37.8-8.3-37.8-34.5V36.6h23.4v48.9c0,11.8,1.6,22.2,14.4,22.2
	c13.3,0,14.3-10.4,14.3-22.2V36.6h23.4L324.9,93.4z"/>
<path class="st0" d="M111.4,0c-7.6,0-13.8,6.2-13.8,13.8s6.2,13.8,13.8,13.8c7.6,0,13.8-6.2,13.8-13.8c0,0,0,0,0,0
	C125.2,6.2,119,0,111.4,0C111.4,0,111.4,0,111.4,0z M111.4,19c-2.9,0-5.3-2.4-5.3-5.3c0-2.9,2.4-5.3,5.3-5.3c2.9,0,5.3,2.4,5.3,5.3
	S114.3,19,111.4,19L111.4,19z"/>
<path class="st0" d="M199.3,0c-7.6,0-13.8,6.2-13.8,13.8c0,7.6,6.2,13.8,13.8,13.8c7.6,0,13.8-6.2,13.8-13.8
	C213.1,6.2,206.9,0,199.3,0C199.3,0,199.3,0,199.3,0z M199.3,19c-2.9,0-5.3-2.4-5.3-5.3s2.4-5.3,5.3-5.3c2.9,0,5.3,2.4,5.3,5.3
	c0,0,0,0,0,0C204.6,16.6,202.2,19,199.3,19z"/>
<path class="st0" d="M287.2,0c-7.6,0-13.8,6.2-13.7,13.8s6.2,13.8,13.8,13.7c7.6,0,13.7-6.2,13.7-13.8C301,6.2,294.8,0,287.2,0
	C287.2,0,287.2,0,287.2,0z M287.2,19c-2.9,0-5.3-2.4-5.3-5.3c0-2.9,2.4-5.3,5.3-5.3c2.9,0,5.3,2.4,5.3,5.3S290.1,19,287.2,19
	L287.2,19z"/>
<path class="st0" d="M418.5,126.2h-16.3v-14c-1.7,7.3-9.3,15.7-27.1,15.7c-24.1,0-40.6-15.2-40.6-45.6c0-32.2,18.7-47.5,43.2-47.5
	c21.5,0,39,11.6,41.5,34h-23.6C393.8,62.4,388,57,377.1,57c-15.1,0-19.3,10.5-19.3,24.1c0,13.2,3.9,24.3,19.3,24.3
	c8.8,0,16.8-3.7,16.8-14h-16.7V73.3h41.3V126.2z"/>
</svg>
